<svg width="925" height="164" viewBox="0 0 925 164" fill="none" xmlns="http://www.w3.org/2000/svg">
<path d="M79.2649 160.77C122.971 160.77 158.402 125.339 158.402 81.6328C158.402 37.9268 122.971 2.49609 79.2649 2.49609C35.5589 2.49609 0.128174 37.9268 0.128174 81.6328C0.128174 125.339 35.5589 160.77 79.2649 160.77Z" fill="white"/>
<path d="M80.1646 81.24V9.59766C99.1653 9.59766 117.388 17.1457 130.823 30.5812C144.259 44.0168 151.807 62.2393 151.807 81.24H80.1646Z" fill="#1E4AA0"/>
<path d="M80.5483 81V154.765C60.9845 154.765 42.222 146.994 28.3883 133.16C14.5546 119.326 6.78296 100.564 6.78296 81H80.5483Z" fill="#1E4AA0"/>
<path opacity="0.6" d="M887.337 163.029C875.278 163.029 866.158 159.638 859.978 152.854C853.798 145.921 850.708 136.047 850.708 123.234V114.19H874.223V125.043C874.223 135.294 878.519 140.419 887.111 140.419C891.332 140.419 894.497 139.213 896.607 136.801C898.869 134.238 899.999 130.168 899.999 124.591C899.999 117.959 898.492 112.155 895.477 107.181C892.462 102.056 886.885 95.9509 878.745 88.8663C868.495 79.822 861.335 71.6822 857.265 64.4467C853.195 57.0606 851.16 48.77 851.16 39.575C851.16 27.0638 854.325 17.4165 860.656 10.6333C866.987 3.69939 876.183 0.232422 888.242 0.232422C900.15 0.232422 909.119 3.69939 915.148 10.6333C921.328 17.4165 924.419 27.2145 924.419 40.0272V46.5843H900.903V38.4445C900.903 33.0179 899.848 29.0987 897.738 26.6869C895.628 24.1244 892.538 22.8431 888.468 22.8431C880.177 22.8431 876.032 27.8928 876.032 37.9922C876.032 43.7203 877.539 49.0715 880.554 54.0458C883.719 59.0202 889.372 65.0497 897.512 72.1344C907.913 81.1786 915.073 89.3939 918.992 96.78C922.911 104.166 924.871 112.834 924.871 122.782C924.871 135.746 921.63 145.694 915.148 152.628C908.817 159.562 899.547 163.029 887.337 163.029Z" fill="white"/>
<path opacity="0.6" d="M772.422 2.49609H840.254V25.1068H797.294V66.9365H831.436V89.5472H797.294V138.16H840.254V160.771H772.422V2.49609Z" fill="white"/>
<path opacity="0.6" d="M681.008 2.49609H718.541C731.354 2.49609 740.7 5.51085 746.578 11.5404C752.457 17.4191 755.397 26.5388 755.397 38.8993V45.2303C755.397 53.3701 754.04 60.0026 751.327 65.1277C748.764 70.2528 744.77 73.9458 739.343 76.2069V76.6591C751.704 80.8798 757.884 91.8836 757.884 109.671V123.237C757.884 135.447 754.643 144.793 748.161 151.274C741.83 157.605 732.484 160.771 720.124 160.771H681.008V2.49609ZM715.602 66.9365C720.576 66.9365 724.269 65.6552 726.681 63.0927C729.244 60.5302 730.525 56.2341 730.525 50.2046V41.3865C730.525 35.6584 729.47 31.5131 727.359 28.9506C725.4 26.388 722.234 25.1068 717.863 25.1068H705.879V66.9365H715.602ZM720.124 138.16C724.495 138.16 727.736 137.03 729.847 134.769C731.957 132.357 733.012 128.287 733.012 122.559V108.766C733.012 101.531 731.731 96.5565 729.168 93.8432C726.756 90.9792 722.687 89.5472 716.959 89.5472H705.879V138.16H720.124Z" fill="white"/>
<path opacity="0.6" d="M637.508 2.49609H662.38V160.771H637.508V2.49609Z" fill="white"/>
<path opacity="0.6" d="M544.615 2.49609H569.713L585.993 125.272H586.445L602.725 2.49609H625.562L601.594 160.771H568.583L544.615 2.49609Z" fill="white"/>
<path d="M418.33 2.49609H442.297L453.376 124.142H453.828L465.586 2.49609H492.719L504.476 124.142H504.928L516.008 2.49609H537.488L521.434 160.771H490.458L479.152 54.0484H478.7L467.395 160.771H434.383L418.33 2.49609Z" fill="white"/>
<path d="M302.544 2.49609H338.042L353.87 115.776H354.322L370.15 2.49609H405.648V160.771H382.133V40.9342H381.681L363.593 160.771H342.791L324.702 40.9342H324.25V160.771H302.544V2.49609Z" fill="white"/>
<path d="M211.129 2.49609H248.663C261.476 2.49609 270.822 5.51085 276.7 11.5404C282.579 17.4191 285.519 26.5388 285.519 38.8993V45.2303C285.519 53.3701 284.162 60.0026 281.449 65.1277C278.886 70.2528 274.892 73.9458 269.465 76.2069V76.6591C281.825 80.8798 288.006 91.8836 288.006 109.671V123.237C288.006 135.447 284.765 144.793 278.283 151.274C271.952 157.605 262.606 160.771 250.246 160.771H211.129V2.49609ZM245.724 66.9365C250.698 66.9365 254.391 65.6552 256.803 63.0927C259.366 60.5302 260.647 56.2341 260.647 50.2046V41.3865C260.647 35.6584 259.592 31.5131 257.481 28.9506C255.522 26.388 252.356 25.1068 247.985 25.1068H236.001V66.9365H245.724ZM250.246 138.16C254.617 138.16 257.858 137.03 259.968 134.769C262.079 132.357 263.134 128.287 263.134 122.559V108.766C263.134 101.531 261.853 96.5565 259.29 93.8432C256.878 90.9792 252.808 89.5472 247.08 89.5472H236.001V138.16H250.246Z" fill="white"/>
</svg>
