<svg width="173" height="34" viewBox="0 0 173 34" fill="none" xmlns="http://www.w3.org/2000/svg">
<g clip-path="url(#clip0_47_2)">
<path d="M32.2178 33.2183C23.2609 33.218 16.0002 25.9573 16 17.0005C16 8.04347 23.2608 0.781956 32.2178 0.781738V33.2183Z" fill="white"/>
<path d="M-0.217773 33.2183C8.73906 33.218 15.9998 25.9573 16 17.0005C16 8.04347 8.73919 0.781956 -0.217773 0.781738V33.2183Z" fill="white"/>
<path d="M172.49 33.2706H166.211L150.353 13.1507V33.2706H143.066V0.730469H149.345L165.157 20.8504V0.730469H172.49V33.2706Z" fill="white"/>
<path d="M109.439 23.8749C111.303 25.7998 113.549 26.7623 116.176 26.7623C118.804 26.7623 121.034 25.7998 122.868 23.8749C124.701 21.95 125.617 19.6584 125.617 17.0002C125.617 14.342 124.701 12.0505 122.868 10.1256C121.034 8.20064 118.804 7.23819 116.176 7.23819C113.549 7.23819 111.303 8.20064 109.439 10.1256C107.606 12.0505 106.689 14.342 106.689 17.0002C106.689 19.6584 107.606 21.95 109.439 23.8749ZM128.047 28.8705C124.777 32.1704 120.82 33.8203 116.176 33.8203C111.532 33.8203 107.56 32.1856 104.26 28.9163C100.991 25.6165 99.3562 21.6445 99.3562 17.0002C99.3562 12.356 100.991 8.39924 104.26 5.12995C107.56 1.8301 111.532 0.180176 116.176 0.180176C120.82 0.180176 124.777 1.8301 128.047 5.12995C131.346 8.4298 132.996 12.3866 132.996 17.0002C132.996 21.6139 131.346 25.5707 128.047 28.8705Z" fill="white"/>
<path d="M67.0112 33.2706V0.730469H79.8439C82.8382 0.730469 85.2673 1.67765 87.1311 3.57201C88.9949 5.46636 89.9268 7.78848 89.9268 10.5384C89.9268 14.6326 87.8033 17.4283 83.5563 18.9255L95.0599 33.2706H86.3061L75.4441 19.8421H74.2984V33.2706H67.0112ZM74.2984 13.6549H78.9731C80.0731 13.6549 80.9592 13.3646 81.6314 12.7841C82.3341 12.2036 82.6855 11.455 82.6855 10.5384C82.6855 9.56062 82.3341 8.79676 81.6314 8.24679C80.9592 7.69681 80.0731 7.42183 78.9731 7.42183H74.2984V13.6549Z" fill="white"/>
<path d="M47.8265 33.2706V0.730469H55.1137V33.2706H47.8265Z" fill="white"/>
</g>
<defs>
<clipPath id="clip0_47_2">
<rect width="173" height="34" fill="white"/>
</clipPath>
</defs>
</svg>
