<svg width="85" height="19" viewBox="0 0 85 19" fill="none" xmlns="http://www.w3.org/2000/svg">
<path d="M78.0708 18.9668H75.1429L77.2068 14.3086L73.0789 5.03162H76.0269L78.6609 11.3997L81.2749 5.03162H84.2429L78.0708 18.9668Z" fill="white"/>
<path d="M69.7229 14.9769C68.6219 14.9769 67.7179 14.6755 67.0109 14.0728C66.3159 13.4569 65.9689 12.5725 65.9689 11.4194V7.39016H63.9839V5.03156H65.9689V2.29956H68.6619V5.03156H71.4329V7.39016H68.6619V10.8887C68.6619 11.4915 68.7929 11.9239 69.0549 12.1859C69.3169 12.4349 69.7429 12.5594 70.3319 12.5594C70.7509 12.5594 71.1179 12.5004 71.4329 12.3825V14.7607C70.9609 14.9048 70.3909 14.9769 69.7229 14.9769Z" fill="white"/>
<path d="M60.0418 3.4199C59.5828 3.4199 59.1838 3.2561 58.8428 2.9286C58.5018 2.5879 58.3318 2.1817 58.3318 1.71C58.3318 1.2383 58.5018 0.8386 58.8428 0.511C59.1838 0.1704 59.5828 0 60.0418 0C60.5268 0 60.9328 0.1704 61.2598 0.511C61.6008 0.8386 61.7708 1.2383 61.7708 1.71C61.7708 2.1817 61.6008 2.5879 61.2598 2.9286C60.9328 3.2561 60.5268 3.4199 60.0418 3.4199ZM58.7048 14.859V5.0316H61.3978V14.859H58.7048Z" fill="white"/>
<path d="M50.8619 15.0752C49.3809 15.0752 48.1489 14.5838 47.1669 13.6011C46.1839 12.6052 45.6919 11.3866 45.6919 9.94533C45.6919 8.50393 46.1839 7.29193 47.1669 6.30923C48.1489 5.31333 49.3809 4.81543 50.8619 4.81543C52.1719 4.81543 53.2659 5.18233 54.1439 5.91613C55.0349 6.64983 55.6179 7.60643 55.8929 8.78573H53.1019C52.6699 7.76363 51.9229 7.25263 50.8619 7.25263C50.1409 7.25263 49.5509 7.50163 49.0929 7.99953C48.6339 8.48433 48.4049 9.13293 48.4049 9.94533C48.4049 10.7577 48.6339 11.4128 49.0929 11.9107C49.5509 12.3956 50.1409 12.638 50.8619 12.638C51.9229 12.638 52.6699 12.127 53.1019 11.1049H55.8929C55.6179 12.2842 55.0349 13.2407 54.1439 13.9745C53.2659 14.7083 52.1719 15.0752 50.8619 15.0752Z" fill="white"/>
<path d="M41.8833 13.6011C40.8744 14.5838 39.6558 15.0752 38.2275 15.0752C36.7993 15.0752 35.5807 14.5838 34.5718 13.6011C33.5628 12.6052 33.0583 11.3866 33.0583 9.94533C33.0583 8.51703 33.5628 7.30503 34.5718 6.30923C35.5807 5.31333 36.7993 4.81543 38.2275 4.81543C39.6558 4.81543 40.8744 5.31333 41.8833 6.30923C42.8919 7.30503 43.3969 8.51703 43.3969 9.94533C43.3969 11.3866 42.8919 12.6052 41.8833 13.6011ZM38.2275 12.5594C38.922 12.5594 39.4985 12.3169 39.9572 11.8321C40.4289 11.3342 40.6646 10.7053 40.6646 9.94533C40.6646 9.18533 40.4289 8.56293 39.9572 8.07813C39.4985 7.58023 38.922 7.33123 38.2275 7.33123C37.52 7.33123 36.9302 7.58023 36.4585 8.07813C35.9999 8.56293 35.7707 9.18533 35.7707 9.94533C35.7707 10.7053 35.9999 11.3342 36.4585 11.8321C36.9302 12.3169 37.52 12.5594 38.2275 12.5594Z" fill="white"/>
<path d="M27.4458 14.859V0.11792H30.1385V14.859H27.4458Z" fill="white"/>
<path d="M19.3521 15.0752C17.8453 15.0752 16.607 14.5903 15.6374 13.6207C14.6809 12.6511 14.2026 11.4194 14.2026 9.92563C14.2026 8.45813 14.6874 7.23953 15.6571 6.26993C16.6398 5.30023 17.878 4.81543 19.3718 4.81543C20.8787 4.81543 22.13 5.33303 23.1258 6.36813C24.1217 7.39023 24.5803 8.79223 24.5017 10.5742H16.8363C16.8888 11.1901 17.1443 11.7077 17.6029 12.1269C18.0615 12.5331 18.6904 12.7362 19.4897 12.7362C19.9745 12.7362 20.4004 12.6445 20.7673 12.4611C21.1473 12.2645 21.4159 11.9959 21.5731 11.6552H24.3837C24.0955 12.6642 23.4927 13.4897 22.5755 14.1317C21.6583 14.7607 20.5838 15.0752 19.3521 15.0752ZM19.2932 6.99713C18.6773 6.99713 18.1598 7.16093 17.7405 7.48843C17.3343 7.80293 17.0657 8.24193 16.9346 8.80533H21.5535C21.4093 8.18953 21.1211 7.73743 20.6887 7.44913C20.2694 7.14783 19.8042 6.99713 19.2932 6.99713Z" fill="white"/>
<path d="M5.7588 14.859L0 0.904053H3.0858L7.0364 10.5939L10.928 0.904053H14.0728L8.2943 14.859H5.7588Z" fill="white"/>
</svg>
