<svg width="1829" height="482" viewBox="0 0 1829 482" fill="none" xmlns="http://www.w3.org/2000/svg">
<path d="M252.429 214.169C258.171 214.223 263.86 215.27 269.245 217.263V146.905H199.61C202.332 136.927 202.716 126.455 200.732 116.304C198.749 106.153 194.451 96.5958 188.173 88.376C181.895 80.1561 173.806 73.4948 164.535 68.9097C155.264 64.3247 145.06 61.9395 134.717 61.9395C124.374 61.9395 114.17 64.3247 104.899 68.9097C95.6279 73.4948 87.539 80.1561 81.261 88.376C74.9831 96.5958 70.6853 106.153 68.7018 116.304C66.7183 126.455 67.1024 136.927 69.8243 146.905H0.189453L0.189453 217.263C5.57452 215.27 11.2636 214.223 17.0054 214.169C30.385 214.169 43.2166 219.484 52.6774 228.945C62.1383 238.405 67.4533 251.237 67.4533 264.617C67.4533 277.996 62.1383 290.828 52.6774 300.289C43.2166 309.75 30.385 315.065 17.0054 315.065C11.2636 315.01 5.57452 313.963 0.189453 311.97L0.189453 399.144H87.3634C85.3704 393.759 84.3236 388.07 84.2692 382.328C84.2692 368.949 89.5843 356.117 99.0451 346.656C108.506 337.196 121.338 331.881 134.717 331.881C148.097 331.881 160.928 337.196 170.389 346.656C179.85 356.117 185.165 368.949 185.165 382.328C185.111 388.07 184.064 393.759 182.071 399.144H269.245V311.97C263.86 313.963 258.171 315.01 252.429 315.065C239.049 315.065 226.218 309.75 216.757 300.289C207.296 290.828 201.981 277.996 201.981 264.617C201.981 251.237 207.296 238.405 216.757 228.945C226.218 219.484 239.049 214.169 252.429 214.169Z" fill="white"/>
<path d="M1521.65 389.746C1482.04 389.746 1453.31 376.357 1435.46 349.579L1474.79 316.107C1484.83 332.285 1500.45 340.374 1521.65 340.374C1528.07 340.374 1533.51 339.119 1537.97 336.609C1542.43 334.098 1544.66 330.332 1544.66 325.312C1544.66 320.849 1542.71 317.222 1538.81 314.433C1535.18 311.365 1527.79 308.296 1516.63 305.228L1501.15 301.462C1481.9 296.441 1467.26 288.073 1457.22 276.358C1447.45 264.643 1442.85 250.696 1443.41 234.517C1443.97 215.55 1451.5 200.347 1466 188.911C1480.79 177.196 1499.48 171.338 1522.07 171.338C1554.15 171.338 1578.28 183.053 1594.45 206.484L1556.8 237.028C1547.04 224.754 1535.18 218.618 1521.23 218.618C1515.65 218.618 1510.77 219.873 1506.59 222.383C1502.4 224.894 1500.31 228.381 1500.31 232.844C1500.31 241.212 1507.15 247.209 1520.81 250.835L1540.48 256.693C1580.93 267.571 1601.15 289.189 1601.15 321.546C1601.15 341.35 1593.62 357.668 1578.55 370.499C1563.49 383.331 1544.52 389.746 1521.65 389.746Z" fill="white"/>
<path d="M1281.53 389.746C1256.71 389.746 1237.32 381.378 1223.37 364.641C1209.71 347.905 1202.87 325.451 1202.87 297.278V175.94H1260.19V287.654C1260.19 320.848 1272.05 337.445 1295.76 337.445C1309.15 337.445 1319.61 332.424 1327.14 322.382C1334.95 312.34 1338.85 297.557 1338.85 278.031V175.94H1396.17V385.143H1338.85V361.294C1326.02 380.262 1306.91 389.746 1281.53 389.746Z" fill="white"/>
<path d="M1065.14 389.746C1051.75 389.746 1039.61 386.956 1028.73 381.378C1017.86 375.799 1009.77 369.244 1004.47 361.713V385.143H947.146V71.3384H1004.47V199.371C1009.77 191.839 1017.86 185.284 1028.73 179.706C1039.61 174.127 1051.75 171.338 1065.14 171.338C1092.75 171.338 1116.04 182.077 1135.01 203.555C1153.98 225.033 1163.46 250.695 1163.46 280.542C1163.46 310.388 1153.98 336.05 1135.01 357.528C1116.04 379.007 1092.75 389.746 1065.14 389.746ZM1014.09 321.545C1023.85 332.145 1036.68 337.445 1052.58 337.445C1068.48 337.445 1081.18 332.145 1090.66 321.545C1100.42 310.946 1105.3 297.278 1105.3 280.542C1105.3 263.805 1100.42 250.137 1090.66 239.538C1081.18 228.938 1068.48 223.638 1052.58 223.638C1036.68 223.638 1023.85 228.938 1014.09 239.538C1004.61 250.137 999.865 263.805 999.865 280.542C999.865 297.278 1004.61 310.946 1014.09 321.545Z" fill="white"/>
<path d="M802.744 389.746C770.945 389.746 744.446 379.704 723.247 359.621C702.326 339.537 691.866 313.178 691.866 280.542C691.866 249.301 702.326 223.36 723.247 202.718C744.167 181.798 770.387 171.338 801.907 171.338C830.917 171.338 855.324 180.403 875.128 198.534C894.933 216.386 904.835 241.63 904.835 274.266C904.835 283.471 904.556 290.026 903.998 293.931H747.514C749.188 307.599 755.185 318.338 765.506 326.148C776.105 333.68 788.658 337.445 803.162 337.445C827.709 337.445 845.7 328.659 857.137 311.086L899.814 342.885C878.336 374.126 845.979 389.746 802.744 389.746ZM749.606 255.019H847.513C845.003 243.025 839.285 233.959 830.359 227.823C821.712 221.686 811.67 218.618 800.233 218.618C788.518 218.618 777.779 221.686 768.016 227.823C758.253 233.959 752.117 243.025 749.606 255.019Z" fill="white"/>
<path d="M446.33 385.143V88.0747H560.137C587.194 88.0747 609.09 96.4428 625.826 113.179C642.842 129.915 651.349 150.836 651.349 175.94C651.349 214.991 630.987 240.793 590.262 253.345L696.956 385.143H623.734L521.643 260.04H506.999V385.143H446.33ZM506.999 208.157H553.024C564.739 208.157 573.944 205.368 580.639 199.789C587.612 193.932 591.099 185.982 591.099 175.94C591.099 165.898 587.612 158.088 580.639 152.509C573.944 146.652 564.739 143.723 553.024 143.723H506.999V208.157Z" fill="white"/>
</svg>
