<svg width="119" height="20" viewBox="0 0 119 20" fill="none" xmlns="http://www.w3.org/2000/svg">
<path d="M20.9175 11.7847C20.9175 8.50044 18.2551 5.83804 14.9708 5.83804C11.6866 5.83804 9.02419 8.50044 9.02419 11.7847C9.02419 15.0689 11.6866 17.7313 14.9708 17.7313V19.5621C10.6755 19.5621 7.19336 16.0801 7.19336 11.7847C7.19336 7.4893 10.6755 4.0072 14.9708 4.0072C19.2662 4.0072 22.7483 7.4893 22.7483 11.7847C22.7483 16.0801 19.2662 19.5621 14.9708 19.5621V17.7313C18.2551 17.7313 20.9175 15.0689 20.9175 11.7847Z" fill="white"/>
<path d="M13.7241 7.77747C13.7241 4.49324 11.0617 1.83083 7.77747 1.83083C4.49324 1.83083 1.83083 4.49324 1.83083 7.77747C1.83083 11.0617 4.49324 13.7241 7.77747 13.7241V15.5549C3.48209 15.5549 0 12.0729 0 7.77747C0 3.48209 3.48209 0 7.77747 0C12.0729 0 15.5549 3.48209 15.5549 7.77747C15.5549 12.0729 12.0729 15.5549 7.77747 15.5549V13.7241C11.0617 13.7241 13.7241 11.0617 13.7241 7.77747Z" fill="white"/>
<path d="M97.1504 18.2071C95.4784 18.2071 94.0998 17.6718 93.0144 16.6011C91.9438 15.5304 91.4084 14.1591 91.4084 12.4871C91.4084 10.8591 91.9511 9.50242 93.0364 8.41709C94.1218 7.31709 95.4931 6.76709 97.1504 6.76709C98.6758 6.76709 99.9371 7.25109 100.934 8.21909C101.946 9.18709 102.452 10.5218 102.452 12.2231C102.452 12.5164 102.445 12.7804 102.43 13.0151H93.7844C93.8431 13.9098 94.1878 14.6358 94.8184 15.1931C95.4491 15.7358 96.2338 16.0071 97.1724 16.0071C98.5804 16.0071 99.6291 15.4498 100.318 14.3351L102.166 15.6551C101.11 17.3564 99.4384 18.2071 97.1504 18.2071ZM93.8944 11.2551H100.01C99.8784 10.4924 99.5338 9.89842 98.9764 9.47309C98.4338 9.03309 97.7958 8.81309 97.0624 8.81309C96.2998 8.81309 95.6178 9.02576 95.0164 9.45109C94.4298 9.87642 94.0558 10.4778 93.8944 11.2551Z" fill="white"/>
<path d="M85.6864 18.2071C84.6744 18.2071 83.7797 18.0164 83.0024 17.6351C82.2251 17.2391 81.6457 16.6524 81.2644 15.8751L83.0464 14.5991C83.2664 15.0684 83.6184 15.4424 84.1024 15.7211C84.5864 15.9851 85.1144 16.1171 85.6864 16.1171C86.1411 16.1171 86.5151 16.0144 86.8084 15.8091C87.1164 15.6038 87.2704 15.3178 87.2704 14.9511C87.2704 14.6284 87.1457 14.3644 86.8964 14.1591C86.6617 13.9538 86.2217 13.7484 85.5764 13.5431L84.6084 13.2791C82.6577 12.7511 81.6971 11.6291 81.7264 9.91309C81.7264 8.95976 82.1004 8.19709 82.8484 7.62509C83.5964 7.05309 84.5351 6.76709 85.6644 6.76709C87.3657 6.76709 88.6051 7.39042 89.3824 8.63709L87.7104 9.91309C87.1531 9.16509 86.4564 8.79109 85.6204 8.79109C85.2244 8.79109 84.8797 8.88642 84.5864 9.07709C84.2931 9.25309 84.1464 9.50242 84.1464 9.82509C84.1464 10.1184 84.2417 10.3678 84.4324 10.5731C84.6231 10.7784 84.9677 10.9618 85.4664 11.1231L86.5884 11.4531C87.6151 11.7611 88.3851 12.1791 88.8984 12.7071C89.4117 13.2204 89.6684 13.9171 89.6684 14.7971C89.6684 15.8384 89.2944 16.6671 88.5464 17.2831C87.7984 17.8991 86.8451 18.2071 85.6864 18.2071Z" fill="white"/>
<path d="M75.6962 18.2071C74.6842 18.2071 73.7895 18.0164 73.0122 17.6351C72.2348 17.2391 71.6555 16.6524 71.2742 15.8751L73.0562 14.5991C73.2762 15.0684 73.6282 15.4424 74.1122 15.7211C74.5962 15.9851 75.1242 16.1171 75.6962 16.1171C76.1508 16.1171 76.5248 16.0144 76.8182 15.8091C77.1262 15.6038 77.2802 15.3178 77.2802 14.9511C77.2802 14.6284 77.1555 14.3644 76.9062 14.1591C76.6715 13.9538 76.2315 13.7484 75.5862 13.5431L74.6182 13.2791C72.6675 12.7511 71.7068 11.6291 71.7362 9.91309C71.7362 8.95976 72.1102 8.19709 72.8582 7.62509C73.6062 7.05309 74.5448 6.76709 75.6742 6.76709C77.3755 6.76709 78.6148 7.39042 79.3922 8.63709L77.7202 9.91309C77.1628 9.16509 76.4662 8.79109 75.6302 8.79109C75.2342 8.79109 74.8895 8.88642 74.5962 9.07709C74.3028 9.25309 74.1562 9.50242 74.1562 9.82509C74.1562 10.1184 74.2515 10.3678 74.4422 10.5731C74.6328 10.7784 74.9775 10.9618 75.4762 11.1231L76.5982 11.4531C77.6248 11.7611 78.3948 12.1791 78.9082 12.7071C79.4215 13.2204 79.6782 13.9171 79.6782 14.7971C79.6782 15.8384 79.3042 16.6671 78.5562 17.2831C77.8082 17.8991 76.8548 18.2071 75.6962 18.2071Z" fill="white"/>
<path d="M64.4083 18.2071C62.7363 18.2071 61.3576 17.6718 60.2723 16.6011C59.2016 15.5304 58.6663 14.1591 58.6663 12.4871C58.6663 10.8591 59.2089 9.50242 60.2943 8.41709C61.3796 7.31709 62.7509 6.76709 64.4083 6.76709C65.9336 6.76709 67.1949 7.25109 68.1923 8.21909C69.2043 9.18709 69.7103 10.5218 69.7103 12.2231C69.7103 12.5164 69.7029 12.7804 69.6883 13.0151H61.0423C61.1009 13.9098 61.4456 14.6358 62.0763 15.1931C62.7069 15.7358 63.4916 16.0071 64.4303 16.0071C65.8383 16.0071 66.8869 15.4498 67.5763 14.3351L69.4243 15.6551C68.3683 17.3564 66.6963 18.2071 64.4083 18.2071ZM61.1523 11.2551H67.2683C67.1363 10.4924 66.7916 9.89842 66.2343 9.47309C65.6916 9.03309 65.0536 8.81309 64.3203 8.81309C63.5576 8.81309 62.8756 9.02576 62.2743 9.45109C61.6876 9.87642 61.3136 10.4778 61.1523 11.2551Z" fill="white"/>
<path d="M46.3738 17.9871V6.98709H48.7938V8.48309C49.4831 7.33909 50.5978 6.76709 52.1378 6.76709C53.4138 6.76709 54.4331 7.18509 55.1958 8.02109C55.9584 8.85709 56.3398 9.97176 56.3398 11.3651V17.9871H53.9198V11.7611C53.9198 10.8811 53.7144 10.1991 53.3038 9.71509C52.8931 9.21642 52.3358 8.96709 51.6318 8.96709C50.7958 8.96709 50.1138 9.28242 49.5858 9.91309C49.0578 10.5438 48.7938 11.4311 48.7938 12.5751V17.9871H46.3738Z" fill="white"/>
<path d="M33.1852 17.9871V9.1431H30.8972V6.9871H33.1852V5.1391C33.1852 3.9511 33.5372 3.0271 34.2412 2.3671C34.9452 1.69244 35.8472 1.3551 36.9472 1.3551C37.6219 1.3551 38.2232 1.4431 38.7512 1.6191V3.7751C38.4139 3.62844 37.9812 3.5551 37.4532 3.5551C36.8079 3.5551 36.3386 3.70177 36.0452 3.9951C35.7519 4.27377 35.6052 4.75044 35.6052 5.4251V6.9871H38.7512V9.1431H35.6052V17.9871H33.1852ZM41.8972 4.5891C41.4572 4.5891 41.0759 4.4351 40.7532 4.1271C40.4306 3.80444 40.2692 3.41577 40.2692 2.9611C40.2692 2.5211 40.4306 2.1471 40.7532 1.8391C41.0759 1.51644 41.4572 1.3551 41.8972 1.3551C42.3519 1.3551 42.7332 1.51644 43.0412 1.8391C43.3492 2.1471 43.5032 2.5211 43.5032 2.9611C43.5032 3.41577 43.3492 3.80444 43.0412 4.1271C42.7332 4.4351 42.3519 4.5891 41.8972 4.5891ZM40.6872 17.9871V6.9871H43.1072V17.9871H40.6872Z" fill="white"/>
</svg>
