<svg width="28" height="19" viewBox="0 0 28 19" fill="none" xmlns="http://www.w3.org/2000/svg">
<path d="M16.0202 9.07869C16.0202 5.24498 12.9124 2.13715 9.07869 2.13715C5.24498 2.13715 2.13715 5.24498 2.13715 9.07869C2.13715 12.9124 5.24498 16.0202 9.07869 16.0202V18.1574C4.06467 18.1574 0 14.0927 0 9.07869C0 4.06467 4.06467 0 9.07869 0C14.0927 0 18.1574 4.06467 18.1574 9.07869C18.1574 14.0927 14.0927 18.1574 9.07869 18.1574V16.0202C12.9124 16.0202 16.0202 12.9124 16.0202 9.07869Z" fill="white"/>
<path d="M25.0991 9.07869C25.0991 5.24498 21.9913 2.13715 18.1576 2.13715C14.3238 2.13715 11.216 5.24498 11.216 9.07869C11.216 12.9124 14.3238 16.0202 18.1576 16.0202V18.1574C13.1435 18.1574 9.07886 14.0927 9.07886 9.07869C9.07886 4.06467 13.1435 0 18.1576 0C23.1716 0 27.2362 4.06467 27.2362 9.07869C27.2362 14.0927 23.1716 18.1574 18.1576 18.1574V16.0202C21.9913 16.0202 25.0991 12.9124 25.0991 9.07869Z" fill="white"/>
</svg>
